# xmcd
#
# Track frame offsets: 
#        150
#        18846
#        27562
#        43088
#        61306
#        100580
#        116772
#        131478
#        148987
#        163211
#        190298
#        210893
#
# Disc length: 3471 seconds
#
# Revision: 2
# Processed by: cddbd v1.4PL0 Copyright (c) Steve Scherf et al.
# Submitted via: ExactAudioCopy v0.90a11
#
DISCID=a90d8d0c
DTITLE=The Original Reverend Jones - Shake, Reverend, Shake
DYEAR=1900
DGENRE=
TTITLE0=My Girl Died In A Carcrash
TTITLE1=Hootchie Cootchie Rider
TTITLE2=Shot!
TTITLE3=Sweet
TTITLE4=Baby Killer
TTITLE5=Don't Wanna Die Alone
TTITLE6=Seven Ton Mum
TTITLE7=Black Rainy Morn
TTITLE8=Sweet Pussy Blue
TTITLE9=A Wig
TTITLE10=Two Wigs (Three Wigs)
TTITLE11=Bury My Liver By The Bend Of The River
EXTD=
EXTT0=
EXTT1=
EXTT2=
EXTT3=
EXTT4=
EXTT5=
EXTT6=
EXTT7=
EXTT8=
EXTT9=
EXTT10=
EXTT11=
PLAYORDER=
